# xmcd
#
# Track frame offsets: 
#        150
#        13870
#        27814
#        44437
#        57658
#        73004
#        89579
#        106728
#        124379
#        153683
#        168633
#        184842
#        212476
#        234369
#        255858
#        288038
#        302931
#        317932
#
# Disc length: 4494 seconds
#
# Revision: 0
# Processed by: cddbd v1.5.2PL0 Copyright (c) Steve Scherf et al.
# Submitted via: ExactAudioCopy v0.95b3
#
DISCID=02118c12
DTITLE=Various Artist - US Metal Vol. 08
DYEAR=1993
DGENRE=Rock
TTITLE0=Winner Takes All
TTITLE1=Ready For Action
TTITLE2=Young Forever
TTITLE3=First Strike
TTITLE4=Let Me Know
TTITLE5=Misbeliever
TTITLE6=Survival In The Streets
TTITLE7=Thunder Road
TTITLE8=I.C.U.C.
TTITLE9=Shuffle Off To Buffalo
TTITLE10=Fight to Win
TTITLE11=The Fire Within
TTITLE12=Misery
TTITLE13=Let The Beast Run Wild
TTITLE14=Step Into The Light
TTITLE15=The Search
TTITLE16=Right For You
TTITLE17=Lets Have the News
EXTD=
EXTT0=
EXTT1=
EXTT2=
EXTT3=
EXTT4=
EXTT5=
EXTT6=
EXTT7=
EXTT8=
EXTT9=
EXTT10=
EXTT11=
EXTT12=
EXTT13=
EXTT14=
EXTT15=
EXTT16=
EXTT17=
PLAYORDER=
